<?xml version="1.0" encoding="UTF-8" standalone="no"?>
<svg
   width="60"
   height="60"
   viewBox="0 0 60 60"
   version="1.1"
   id="svg136"
   sodipodi:docname="i-ulogo.svg"
   inkscape:version="1.2 (dc2aeda, 2022-05-15)"
   xmlns:inkscape="http://www.inkscape.org/namespaces/inkscape"
   xmlns:sodipodi="http://sodipodi.sourceforge.net/DTD/sodipodi-0.dtd"
   xmlns="http://www.w3.org/2000/svg"
   xmlns:svg="http://www.w3.org/2000/svg">
  <defs
     id="defs140" />
  <sodipodi:namedview
     id="namedview138"
     pagecolor="#ffffff"
     bordercolor="#000000"
     borderopacity="0.25"
     inkscape:showpageshadow="2"
     inkscape:pageopacity="0.0"
     inkscape:pagecheckerboard="0"
     inkscape:deskcolor="#d1d1d1"
     showgrid="false"
     inkscape:zoom="3.9333333"
     inkscape:cx="75.254237"
     inkscape:cy="30.381356"
     inkscape:window-width="1440"
     inkscape:window-height="783"
     inkscape:window-x="0"
     inkscape:window-y="25"
     inkscape:window-maximized="0"
     inkscape:current-layer="logo" />
  <g
     id="logo"
     transform="translate(0.031,-3.197)">
    <path
       id="パス_4"
       data-name="パス 4"
       d="m 282.231,388.936 c -0.053,-0.15 -0.213,-0.177 -0.285,-0.283 a 7.655,7.655 0 0 0 -1.4,-1.606 c -0.062,-0.062 -0.089,-0.044 -0.187,0 a 1.363,1.363 0 0 1 -0.071,-0.2 h -0.418 a 7.874,7.874 0 0 0 -1.538,-0.618 2.683,2.683 0 0 1 -0.6,0 c -0.391,0.353 -1.031,0.291 -1.476,0.415 a 8.308,8.308 0 0 0 -1.778,1.288 8.672,8.672 0 0 0 -0.445,1.059 c 0.062,0.044 0,0 0.08,0 -0.729,1.147 -0.2,3.8 0.987,4.739 a 7.805,7.805 0 0 0 1.325,0.671 c 0.125,0.071 0.258,0.326 0.391,0.362 l 1.778,0.132 a 8.154,8.154 0 0 0 3.192,-1.959 c 0.071,-0.071 0.044,-0.15 0,-0.256 0.418,-0.159 0.418,-0.8 0.525,-1.165 0,-0.141 0.187,-0.327 0.2,-0.468 a 6.541,6.541 0 0 0 -0.28,-2.111 z m -4.365,3.583 a 2.074,2.074 0 0 1 -1.04,-0.282 c -0.889,-0.794 -1.36,-2.506 -0.133,-3.274 0.373,-0.238 0.827,-0.247 1.067,-0.415 1.031,0.141 1.778,0.212 2.16,1.315 0.1,0.274 0.249,0.406 0.178,0.75 l 0.2,0.15 c -0.698,0.996 -1.072,1.937 -2.432,1.755 z m -53.452,1.544 0.489,0.106 0.187,0.282 h 0.622 a 3.853,3.853 0 0 0 1.165,0.256 3.949,3.949 0 0 0 0.889,-0.123 4.761,4.761 0 0 0 1.378,-0.335 4.043,4.043 0 0 0 2.045,-3.821 4.225,4.225 0 0 0 -0.151,-1.262 c -0.987,-1.977 -1.707,-2.409 -3.77,-2.815 -0.116,0 -0.124,-0.088 -0.2,-0.15 -0.249,0.141 -0.471,0 -0.782,0.124 a 5.668,5.668 0 0 0 -2.569,1.421 c -1.485,2.012 -1.654,3.45 -0.107,5.295 a 6.261,6.261 0 0 0 0.804,1.022 z m 1.423,-5 a 0.548,0.548 0 0 0 0.187,-0.256 2.425,2.425 0 0 0 0.729,-0.2 c 0.2,-0.053 0.445,0 0.676,-0.053 a 4.458,4.458 0 0 1 1.067,0.538 2.107,2.107 0 0 1 0,2.939 c -0.133,-0.141 -0.267,0.238 -0.365,0.238 -0.329,0 -0.791,0.406 -1.485,0.256 -1.111,-0.238 -1.414,-0.882 -1.92,-1.765 0.276,-0.644 0.418,-1.412 1.111,-1.694 z m 25.624,5.833 c 0.187,-0.185 0.765,0.053 0.889,0.079 a 3.383,3.383 0 0 0 1.245,-0.265 l 0.053,-0.15 0.6,-0.132 a 4.381,4.381 0 0 0 1.867,-1.677 c 0.16,-0.238 0.72,-1.1 0.551,-1.341 a 7.319,7.319 0 0 0 0.2,-1.7 c -0.089,-0.177 0,-0.309 -0.107,-0.485 a 6.078,6.078 0 0 0 -1.974,-2.48 h -0.311 a 4.753,4.753 0 0 0 -1.165,-0.432 l -0.889,-0.053 c -0.142,0.088 -0.418,0 -0.622,0.079 a 5.8,5.8 0 0 0 -1.716,0.618 3.4,3.4 0 0 0 -0.622,0.821 c -0.222,0.291 -0.445,0.591 -0.676,0.882 -0.489,1.465 -0.685,3.53 0.551,4.871 a 8.6,8.6 0 0 0 2.125,1.361 z m -0.756,-4.465 v -0.591 a 6.989,6.989 0 0 1 0.782,-1.138 c 0.053,0.062 0.587,-0.221 0.6,-0.229 0.818,0.185 1.218,-0.079 1.778,0.388 1.5,1.209 0.489,3.177 -1.067,3.689 a 1.956,1.956 0 0 1 -2,-0.671 c -0.116,-0.176 -0.08,-0.362 -0.151,-0.521 a 1.125,1.125 0 0 1 -0.16,-0.485 c 0.027,-0.176 0.187,-0.309 0.222,-0.432 z m -27.7,27.162 a 1.756,1.756 0 0 0 0.258,0.618 0.9,0.9 0 0 1 0.16,0.079 1.683,1.683 0 0 0 0.044,0.362 l 0.471,0.309 0.08,0.229 c 0.356,0.274 0.889,0.494 1.165,0.7 l 0.5,0.388 a 4.664,4.664 0 0 0 1.3,0.132 3.752,3.752 0 0 0 1.4,0 c 0.231,-0.088 0.4,-0.344 0.6,-0.441 l 0.365,-0.132 c 0.089,-0.088 0,-0.168 0.053,-0.256 l 0.2,-0.106 0.16,-0.282 0.311,-0.079 v 0 c 0.107,-0.115 0.107,-0.344 0.178,-0.485 0.151,-0.291 0.4,-0.468 0.551,-0.777 v 0 a 6.133,6.133 0 0 0 -0.071,-3.609 l -0.187,-0.229 v -0.282 c -0.124,-0.238 -0.356,-0.274 -0.542,-0.441 l -0.311,-0.512 a 13.977,13.977 0 0 0 -1.4,-0.724 l -0.16,-0.185 a 8.663,8.663 0 0 0 -1.378,-0.1 c -0.356,0.265 -1.049,-0.062 -1.556,0.2 a 5.366,5.366 0 0 0 -2.249,2.294 8.191,8.191 0 0 0 -0.311,1.315 c 0.062,0.053 0,0 0.08,0 -0.3,0.538 0.08,1.43 0.293,2.012 z m 2.08,-2.55 0.285,-0.185 c 0.133,-0.185 0.2,-0.432 0.391,-0.565 0.191,-0.133 0.818,-0.15 1.111,-0.362 a 2.182,2.182 0 0 1 1.722,0.979 2.148,2.148 0 0 1 0.207,1.959 l -0.782,1.032 c -0.133,0 -0.08,0 -0.187,-0.106 -0.2,0.106 -0.631,0.176 -0.7,0.362 a 1.863,1.863 0 0 0 -0.747,-0.053 c -0.285,-0.282 -0.756,-0.415 -0.987,-0.741 -0.415,-0.586 -0.78,-1.698 -0.309,-2.325 z m 54.67,-2.992 -0.365,-0.265 c -0.373,-0.079 -0.756,0.1 -1.094,0 a 1.45,1.45 0 0 0 -0.462,-0.07 c -0.347,0.229 -0.64,0.1 -0.987,0.256 a 6.165,6.165 0 0 0 -1.271,0.644 c -2.1,1.535 -1.92,4.315 -0.729,6.177 0.222,0.362 0.694,0.494 0.889,0.882 a 0.241,0.241 0 0 0 0.285,0 l 0.16,0.256 c 0.24,0.194 0.8,0.132 0.889,0.415 a 3.268,3.268 0 0 0 1.689,0.177 c 0.249,-0.071 0.6,-0.327 0.889,-0.256 a 0.255,0.255 0 0 0 0.08,-0.185 c 0.889,-0.15 0.64,-0.574 1.174,-0.882 a 1.625,1.625 0 0 0 0.516,-0.335 c 0.16,-0.185 0,-0.3 0.107,-0.494 0.107,-0.194 0.365,-0.212 0.409,-0.432 a 15.34,15.34 0 0 0 0.365,-2.118 c 0.053,-0.5 -0.356,-1.068 -0.151,-1.491 a 5,5 0 0 0 -2.392,-2.277 z m 0.187,5 h -0.24 v 0.238 a 2.754,2.754 0 0 1 -1.245,0.953 c -0.089,-0.071 -0.7,0 -0.836,-0.106 a 2.073,2.073 0 0 1 -1.271,-1.959 c -0.08,-0.053 -0.062,-0.053 -0.151,-0.053 -0.089,0 0.267,-0.671 0,-0.794 a 3.612,3.612 0 0 1 0.827,-1.112 3.336,3.336 0 0 0 0.7,-0.282 5.908,5.908 0 0 1 1.431,0.309 c 0.151,0.08 0.053,0.141 0.125,0.23 l 0.551,0.415 a 2.629,2.629 0 0 1 0.113,2.16 z M 256.634,414.6 a 4.541,4.541 0 0 0 -2.187,-2.294 l -0.364,-0.282 c -0.391,-0.1 -0.889,0 -1.218,-0.106 a 3.383,3.383 0 0 0 -0.782,-0.185 c -0.169,0.256 -0.356,0 -0.6,0.106 -0.244,0.106 -0.471,0.432 -0.7,0.547 -0.229,0.115 -0.516,0.247 -0.889,0.432 -0.1,0.124 -0.2,0.238 -0.285,0.362 v 0 c -0.151,0.062 -1.085,0.962 -0.96,1.218 0.125,0.256 -0.48,1.059 -0.418,1.465 a 3.366,3.366 0 0 0 0,0.724 9.19,9.19 0 0 0 0.445,1.571 7.413,7.413 0 0 0 1.894,1.862 h 0.471 a 4.109,4.109 0 0 0 3.058,0.053 c 0.462,-0.194 1.129,-0.079 1.325,-0.724 h 0.213 a 9.273,9.273 0 0 0 1.325,-2.709 2.233,2.233 0 0 0 -0.053,-0.979 c 0.125,-0.256 -0.178,-0.847 -0.276,-1.059 z m -1.974,2.118 c -0.133,0.406 -1.689,1.6 -2.134,1.412 -0.222,-0.088 -0.533,0 -0.676,-0.124 -1.227,-0.882 -2,-1.121 -1.014,-2.815 a 1.88,1.88 0 0 1 0.525,-0.7 3.679,3.679 0 0 1 0.774,-0.362 c 0.213,-0.053 0.507,0.062 0.676,-0.053 a 8.917,8.917 0 0 1 1.174,0.547 c 0,0.1 0.071,0.185 0.1,0.282 0.029,0.097 0.267,0 0.338,0.159 0.107,0.274 0.213,0.547 0.311,0.821 0.098,0.274 -0.047,0.548 -0.073,0.83 z m -23.623,23.879 c -0.2,-0.468 -0.418,-0.882 -0.622,-1.394 a 5.452,5.452 0 0 0 -2.5,-1.7 l -1.111,-0.176 c -0.365,0.168 -1.262,0.044 -1.538,0.229 a 6.4,6.4 0 0 0 -1.974,1.985 c -0.249,0.432 -0.169,0.794 -0.445,1.138 0.062,0.053 0,0 0.08,0 a 4.391,4.391 0 0 0 1.245,4.306 11.582,11.582 0 0 0 1.351,0.75 l 0.133,0.176 c 0.231,0.115 0.542,0 0.756,0.079 l 0.178,0.177 c 0.276,0.106 0.542,-0.044 0.782,-0.053 l 0.311,0.079 c 0.071,0 0.16,-0.168 0.2,-0.177 l 0.24,0.071 a 1.9,1.9 0 0 0 0.489,-0.177 2.864,2.864 0 0 0 0.471,-0.335 l 0.08,-0.229 a 5.121,5.121 0 0 0 0.516,-0.159 c 0.2,-0.115 0.222,-0.335 0.365,-0.512 l 0.258,-0.106 a 2.164,2.164 0 0 0 0.5,-1.085 0.465,0.465 0 0 1 0.231,-0.071 5.266,5.266 0 0 1 0.231,-0.979 1.315,1.315 0 0 1 0,-0.962 c -0.173,-0.172 -0.147,-0.631 -0.227,-0.878 z m -3.556,3.247 c -1.147,0.547 -2.872,-1.421 -2.463,-2.647 a 6.825,6.825 0 0 1 0.445,-0.953 c 0.213,-0.168 0.293,-0.071 0.382,-0.388 a 1.6,1.6 0 0 0 0.6,-0.282 4.123,4.123 0 0 1 1.663,0.468 2.223,2.223 0 0 1 0.676,0.953 2.088,2.088 0 0 1 -1.316,2.85 z m 29.393,-2.6 c 0.053,-1.13 -1.031,-2.286 -1.778,-2.965 -0.187,-0.168 -0.48,-0.256 -0.622,-0.468 l -0.258,0.106 c -0.187,-0.353 -1.289,-0.379 -1.778,-0.415 -0.151,0.168 -1.245,0.044 -1.609,0.238 a 4.769,4.769 0 0 0 -2.436,2.647 c -0.071,0.229 0,0.415 -0.053,0.591 a 1.12,1.12 0 0 0 0,0.882 4.2,4.2 0 0 0 0,0.75 4.405,4.405 0 0 0 6.757,2.647 l 0.258,-0.335 a 5.016,5.016 0 0 0 1.583,-2.109 l -0.107,-0.132 c 0.258,-0.415 0.018,-0.988 0.036,-1.438 z m -4.934,2.427 c -0.3,-0.115 -0.373,-0.309 -0.6,-0.468 -0.227,-0.159 -0.471,-0.159 -0.6,-0.335 a 2.166,2.166 0 0 1 -0.044,-2.268 2.668,2.668 0 0 1 1.351,-0.882 c 0.169,-0.044 0.293,0 0.436,-0.053 0.178,0.088 0.667,0.415 0.96,0.256 0.2,0.212 0.409,0.212 0.631,0.415 a 3.53,3.53 0 0 1 0.667,1.032 c 0.48,1.05 -1.654,2.745 -2.81,2.3 z m 30.087,-4.024 c -0.791,-1.659 -2.125,-1.888 -3.814,-2.118 l -1.174,0.159 a 5.94,5.94 0 0 0 -1.778,1.006 8.748,8.748 0 0 0 -1.014,1.394 l -0.08,0.485 c -0.1,0.168 -0.409,1.244 -0.2,1.421 -0.151,0.15 0.124,1.059 0.124,1.059 a 1.936,1.936 0 0 0 0.445,0.927 4.6,4.6 0 0 0 3.352,2.038 c 2.107,0.4 4.934,-2.268 4.543,-4.465 a 7.087,7.087 0 0 0 -0.409,-1.906 z m -1.983,2.859 a 2.262,2.262 0 0 1 -2.418,1.288 1.961,1.961 0 0 1 -1.444,-1.261 1.939,1.939 0 0 1 0.333,-1.88 l 0.231,-0.362 a 9.748,9.748 0 0 1 1.04,-0.538 0.95,0.95 0 0 0 0.569,-0.053 c 0.231,0.1 0.773,0 1.04,0.2 a 1.98,1.98 0 0 1 0.649,2.6 z"
       transform="translate(-222.55,-383.003)"
       fill="#222222"
       fill-rule="evenodd" />
  </g>
</svg>
